<svg xmlns="http://www.w3.org/2000/svg" xmlns:xlink="http://www.w3.org/1999/xlink" width="1215.539" height="799.413" viewBox="0 0 1215.539 799.413">
  <defs>
    <filter id="Rectángulo_60467" x="308.96" y="106" width="577.081" height="66.446" filterUnits="userSpaceOnUse">
      <feOffset dy="8" input="SourceAlpha"/>
      <feGaussianBlur stdDeviation="3" result="blur"/>
      <feFlood flood-opacity="0.161"/>
      <feComposite operator="in" in2="blur"/>
      <feComposite in="SourceGraphic"/>
    </filter>
    <filter id="Rectángulo_60469" x="231.797" y="185" width="730.938" height="66.446" filterUnits="userSpaceOnUse">
      <feOffset dy="8" input="SourceAlpha"/>
      <feGaussianBlur stdDeviation="3" result="blur-2"/>
      <feFlood flood-opacity="0.161"/>
      <feComposite operator="in" in2="blur-2"/>
      <feComposite in="SourceGraphic"/>
    </filter>
    <clipPath id="clip-path">
      <rect id="Rectángulo_60471" data-name="Rectángulo 60471" width="18.028" height="16.496" transform="translate(0 0)" fill="#757070"/>
    </clipPath>
  </defs>
  <g id="Grupo_184968" data-name="Grupo 184968" transform="translate(-202.5 -640)">
    <g id="Grupo_180678" data-name="Grupo 180678" transform="translate(-1825.5 1665) rotate(-90)">
      <circle id="Elipse_5386" data-name="Elipse 5386" cx="5" cy="5" r="5" transform="translate(236 2102) rotate(90)" fill="#13b0a3"/>
      <circle id="Elipse_5387" data-name="Elipse 5387" cx="5" cy="5" r="5" transform="translate(236 2088) rotate(90)" fill="#13b0a3"/>
      <circle id="Elipse_5388" data-name="Elipse 5388" cx="5" cy="5" r="5" transform="translate(236 2074) rotate(90)" fill="#13b0a3"/>
      <circle id="Elipse_5389" data-name="Elipse 5389" cx="5" cy="5" r="5" transform="translate(236 2058) rotate(90)" fill="#13b0a3"/>
      <circle id="Elipse_5390" data-name="Elipse 5390" cx="5" cy="5" r="5" transform="translate(236 2028) rotate(90)" fill="#13b0a3"/>
    </g>
    <text id="Constitución_de_organizaciones_de_economía_solidaria" data-name="Constitución de organizaciones de economía solidaria" transform="translate(474.5 640)" fill="#12263f" font-size="30" font-family="Roboto-Bold, Roboto" font-weight="700"><tspan x="22.799" y="31">Constitución de organizaciones de economía </tspan><tspan x="267.868" y="61">solidaria</tspan></text>
    <g transform="matrix(1, 0, 0, 1, 202.5, 640)" filter="url(#Rectángulo_60467)">
      <rect id="Rectángulo_60467-2" data-name="Rectángulo 60467" width="559.081" height="48.446" rx="7" transform="translate(317.96 107)" fill="#32d9cb"/>
    </g>
    <rect id="Rectángulo_60468" data-name="Rectángulo 60468" width="548.081" height="40.446" rx="7" transform="translate(525.46 751)" fill="#fff"/>
    <g transform="matrix(1, 0, 0, 1, 202.5, 640)" filter="url(#Rectángulo_60469)">
      <rect id="Rectángulo_60469-2" data-name="Rectángulo 60469" width="712.938" height="48.446" rx="7" transform="translate(240.8 186)" fill="#32d9cb"/>
    </g>
    <rect id="Rectángulo_60470" data-name="Rectángulo 60470" width="699.157" height="40.446" rx="7" transform="translate(449.561 830)" fill="#fff"/>
    <text id="Es_la_vida_jurídica_de_las_organizaciones_empresariales." data-name="Es la vida jurídica de las organizaciones empresariales." transform="translate(616.5 761)" fill="#12263f" font-size="16" font-family="Roboto-Regular, Roboto"><tspan x="0" y="17">Es la vida jurídica de las organizaciones empresariales.</tspan></text>
    <text id="De_acuerdo_con_su_forma_jurídica_tiene_un_régimen_normativo_específico." data-name="De acuerdo con su forma jurídica tiene un régimen normativo específico." transform="translate(553.5 840)" fill="#12263f" font-size="16" font-family="Roboto-Regular, Roboto"><tspan x="0" y="17">De acuerdo con su forma jurídica tiene un régimen normativo específico.</tspan></text>
    <text id="Realizar_curso_de_educación_cooperativa._Aprobación_por_parte_de_la_asamblea_de_los_estatutos_de_la_organización_solidaria._Cancelación_del_impuesto_departamental_de_registro._Presentarse_en_la_Cámara_de_Comercio_respectiva._Formalizar_RUT_ante_la_DIAN" data-name="Realizar curso de educación cooperativa.

Aprobación por parte de la asamblea de los estatutos de la organización solidaria.

Cancelación del impuesto departamental de registro.

Presentarse en la Cámara de Comercio respectiva.

Formalizar RUT ante la DIAN" transform="translate(492.5 1041)" fill="#12263f" font-size="16" font-family="Roboto-Regular, Roboto"><tspan x="0" y="17">Realizar curso de educación </tspan><tspan x="0" y="41">cooperativa.</tspan><tspan x="0" y="65"></tspan><tspan x="0" y="89">Aprobación por parte de la </tspan><tspan x="0" y="113">asamblea de los estatutos de </tspan><tspan x="0" y="137">la organización solidaria.</tspan><tspan x="0" y="161"></tspan><tspan x="0" y="185">Cancelación del impuesto </tspan><tspan x="0" y="209">departamental de registro.</tspan><tspan x="0" y="233"></tspan><tspan x="0" y="257">Presentarse en la Cámara de </tspan><tspan x="0" y="281">Comercio respectiva.</tspan><tspan x="0" y="305"></tspan><tspan x="0" y="329">Formalizar RUT ante la DIAN.</tspan></text>
    <text id="Superintendencia_de_la_Economía_Solidaria." data-name="Superintendencia de la Economía Solidaria." transform="translate(902.5 1075)" fill="#12263f" font-size="16" font-family="Roboto-Regular, Roboto"><tspan x="0" y="17">Superintendencia de la </tspan></text>
    <text id="Superintendencia_Financiera_de_Colombia." data-name="Superintendencia Financiera de Colombia." transform="translate(1162.5 1075)" fill="#12263f" font-size="16" font-family="Roboto-Regular, Roboto"><tspan x="0" y="17">Superintendencia Financiera </tspan></text>
    <g id="Grupo_182958" data-name="Grupo 182958" transform="translate(15 75)">
      <line id="Línea_647" data-name="Línea 647" y2="24" transform="translate(784.5 648)" fill="none" stroke="#757070" stroke-linecap="round" stroke-width="3"/>
      <line id="Línea_649" data-name="Línea 649" y2="31" transform="translate(784.5 720)" fill="none" stroke="#757070" stroke-width="3"/>
      <g id="Grupo_182954" data-name="Grupo 182954">
        <line id="Línea_659" data-name="Línea 659" x1="48" transform="translate(378.5 976)" fill="none" stroke="#757070" stroke-width="3"/>
        <line id="Línea_660" data-name="Línea 660" x1="48" transform="translate(378.5 1052)" fill="none" stroke="#757070" stroke-width="3"/>
        <line id="Línea_661" data-name="Línea 661" x1="48" transform="translate(378.5 1150)" fill="none" stroke="#757070" stroke-width="3"/>
        <line id="Línea_662" data-name="Línea 662" x1="48" transform="translate(378.5 1223)" fill="none" stroke="#757070" stroke-width="3"/>
        <line id="Línea_663" data-name="Línea 663" x1="48" transform="translate(378.5 1293)" fill="none" stroke="#757070" stroke-width="3"/>
        <line id="Línea_658" data-name="Línea 658" y2="368" transform="translate(378.5 925)" fill="none" stroke="#757070" stroke-linecap="round" stroke-width="3"/>
      </g>
      <g id="Grupo_182956" data-name="Grupo 182956">
        <line id="Línea_650" data-name="Línea 650" y2="34" transform="translate(784.5 799)" fill="none" stroke="#757070" stroke-width="3"/>
        <line id="Línea_652" data-name="Línea 652" y2="29" transform="translate(1108.5 832)" fill="none" stroke="#757070" stroke-width="3"/>
        <line id="Línea_653" data-name="Línea 653" y2="29" transform="translate(463.5 832)" fill="none" stroke="#757070" stroke-width="3"/>
        <line id="Línea_651" data-name="Línea 651" x2="647" transform="translate(463 833.5)" fill="none" stroke="#707070" stroke-width="3"/>
      </g>
      <g id="Grupo_182957" data-name="Grupo 182957">
        <line id="Línea_654" data-name="Línea 654" y2="37" transform="translate(1108.5 925)" fill="none" stroke="#757070" stroke-width="3"/>
        <line id="Línea_656" data-name="Línea 656" y2="30" transform="translate(1228.5 960)" fill="none" stroke="#757070" stroke-width="3"/>
        <line id="Línea_657" data-name="Línea 657" y2="30" transform="translate(963.5 960)" fill="none" stroke="#757070" stroke-width="3"/>
        <line id="Línea_655" data-name="Línea 655" x2="268" transform="translate(962 961)" fill="none" stroke="#707070" stroke-width="3"/>
      </g>
    </g>
    <g id="Grupo_182946" data-name="Grupo 182946" transform="translate(57 53)">
      <rect id="Rectángulo_59638" data-name="Rectángulo 59638" width="258" height="64" rx="9" transform="translate(291.5 883)" fill="#7f0f98"/>
      <rect id="Rectángulo_59637" data-name="Rectángulo 59637" width="247" height="56" rx="9" transform="translate(297.5 887)" fill="#fff"/>
    </g>
    <g id="Grupo_182947" data-name="Grupo 182947" transform="translate(673 53)">
      <rect id="Rectángulo_59638-2" data-name="Rectángulo 59638" width="317" height="64" rx="9" transform="translate(291.5 883)" fill="#7f0f98"/>
      <rect id="Rectángulo_59637-2" data-name="Rectángulo 59637" width="306" height="56" rx="9" transform="translate(297.5 887)" fill="#fff"/>
    </g>
    <text id="Pasos_para_su_constitución" data-name="Pasos para su constitución" transform="translate(425.5 947)" fill="#12263f" font-size="16" font-family="Roboto-Bold, Roboto" font-weight="700"><tspan x="1.887" y="17">Pasos para su </tspan></text>
    <text id="Entidades_de_inspección_vigilancia_y_control" data-name="Entidades de inspección, vigilancia y control" transform="translate(990.5 947)" fill="#12263f" font-size="16" font-family="Roboto-Bold, Roboto" font-weight="700"><tspan x="1.348" y="17">Entidades de inspección, vigilancia y </tspan></text>
    <g id="Grupo_182955" data-name="Grupo 182955" transform="translate(15 75)">
      <g id="Grupo_182949" data-name="Grupo 182949" transform="translate(445.472 966)">
        <g id="Grupo_182948" data-name="Grupo 182948" transform="translate(0 0)" clip-path="url(#clip-path)">
          <path id="Trazado_217950" data-name="Trazado 217950" d="M17.679.276a1.065,1.065,0,0,0-1.5.074l-9.8,10.809L1.752,7.368A1.072,1.072,0,0,0,.195,8.814L5,15.654a2.016,2.016,0,0,0,.5.494,1.979,1.979,0,0,0,2.752-.511l.079-.114L17.841,1.667A1.065,1.065,0,0,0,17.679.276" transform="translate(0 0)" fill="#757070"/>
        </g>
      </g>
      <g id="Grupo_182950" data-name="Grupo 182950" transform="translate(445.472 1039)">
        <g id="Grupo_182948-2" data-name="Grupo 182948" transform="translate(0 0)" clip-path="url(#clip-path)">
          <path id="Trazado_217950-2" data-name="Trazado 217950" d="M17.679.276a1.065,1.065,0,0,0-1.5.074l-9.8,10.809L1.752,7.368A1.072,1.072,0,0,0,.195,8.814L5,15.654a2.016,2.016,0,0,0,.5.494,1.979,1.979,0,0,0,2.752-.511l.079-.114L17.841,1.667A1.065,1.065,0,0,0,17.679.276" transform="translate(0 0)" fill="#757070"/>
        </g>
      </g>
      <g id="Grupo_182951" data-name="Grupo 182951" transform="translate(445.472 1138)">
        <g id="Grupo_182948-3" data-name="Grupo 182948" transform="translate(0 0)" clip-path="url(#clip-path)">
          <path id="Trazado_217950-3" data-name="Trazado 217950" d="M17.679.276a1.065,1.065,0,0,0-1.5.074l-9.8,10.809L1.752,7.368A1.072,1.072,0,0,0,.195,8.814L5,15.654a2.016,2.016,0,0,0,.5.494,1.979,1.979,0,0,0,2.752-.511l.079-.114L17.841,1.667A1.065,1.065,0,0,0,17.679.276" transform="translate(0 0)" fill="#757070"/>
        </g>
      </g>
      <g id="Grupo_182952" data-name="Grupo 182952" transform="translate(445.472 1212)">
        <g id="Grupo_182948-4" data-name="Grupo 182948" transform="translate(0 0)" clip-path="url(#clip-path)">
          <path id="Trazado_217950-4" data-name="Trazado 217950" d="M17.679.276a1.065,1.065,0,0,0-1.5.074l-9.8,10.809L1.752,7.368A1.072,1.072,0,0,0,.195,8.814L5,15.654a2.016,2.016,0,0,0,.5.494,1.979,1.979,0,0,0,2.752-.511l.079-.114L17.841,1.667A1.065,1.065,0,0,0,17.679.276" transform="translate(0 0)" fill="#757070"/>
        </g>
      </g>
      <g id="Grupo_182953" data-name="Grupo 182953" transform="translate(445.472 1279)">
        <g id="Grupo_182948-5" data-name="Grupo 182948" transform="translate(0 0)" clip-path="url(#clip-path)">
          <path id="Trazado_217950-5" data-name="Trazado 217950" d="M17.679.276a1.065,1.065,0,0,0-1.5.074l-9.8,10.809L1.752,7.368A1.072,1.072,0,0,0,.195,8.814L5,15.654a2.016,2.016,0,0,0,.5.494,1.979,1.979,0,0,0,2.752-.511l.079-.114L17.841,1.667A1.065,1.065,0,0,0,17.679.276" transform="translate(0 0)" fill="#757070"/>
        </g>
      </g>
    </g>
    <line id="Línea_664" data-name="Línea 664" y2="362" transform="translate(380 1008.5)" fill="none" stroke="#757070" stroke-width="3" stroke-dasharray="5"/>
    <g id="Grupo_171430" data-name="Grupo 171430" transform="translate(1182.039 -672.587)">
      <circle id="Elipse_5386-2" data-name="Elipse 5386" cx="5" cy="5" r="5" transform="translate(236 2102) rotate(90)" fill="#00a3be"/>
      <circle id="Elipse_5387-2" data-name="Elipse 5387" cx="5" cy="5" r="5" transform="translate(236 2088) rotate(90)" fill="#00a3be"/>
      <circle id="Elipse_5388-2" data-name="Elipse 5388" cx="5" cy="5" r="5" transform="translate(236 2074) rotate(90)" fill="#00a3be"/>
      <circle id="Elipse_5389-2" data-name="Elipse 5389" cx="5" cy="5" r="5" transform="translate(236 2058) rotate(90)" fill="#00a3be"/>
      <circle id="Elipse_5390-2" data-name="Elipse 5390" cx="5" cy="5" r="5" transform="translate(236 2028) rotate(90)" fill="#00a3be"/>
    </g>
  </g>
</svg>
