<svg xmlns="http://www.w3.org/2000/svg" xmlns:xlink="http://www.w3.org/1999/xlink" width="186.11" height="183.449" viewBox="0 0 186.11 183.449">
  <defs>
    <clipPath id="clip-path">
      <rect id="Rectángulo_60329" data-name="Rectángulo 60329" width="186.11" height="183.449" fill="none"/>
    </clipPath>
  </defs>
  <g id="Grupo_184968" data-name="Grupo 184968" transform="translate(3667 9371)">
    <g id="Grupo_182769" data-name="Grupo 182769" transform="translate(-3667 -9371)">
      <g id="Grupo_182482" data-name="Grupo 182482" clip-path="url(#clip-path)">
        <circle id="Elipse_5435" data-name="Elipse 5435" cx="74" cy="74" r="74" transform="translate(17 18)" fill="#fff"/>
        <path id="Trazado_217728" data-name="Trazado 217728" d="M0,91.728a91.727,91.727,0,0,0,182.153,15.393,20.327,20.327,0,0,1-19.373-.528,72.568,72.568,0,1,1-1.18-34.585,20.349,20.349,0,0,1,19.286-1.86A91.731,91.731,0,0,0,0,91.728" fill="#00897b"/>
        <path id="Trazado_217727" data-name="Trazado 217727" d="M220.818,117.866a13.153,13.153,0,1,0,13.152-13.154,13.153,13.153,0,0,0-13.152,13.154" transform="translate(-61.013 -28.933)" fill="#00897b"/>
      </g>
    </g>
    <text id="Superintendencia_de_la_Economía_Solidaria" data-name="Superintendencia de la Economía Solidaria" transform="translate(-3639 -9311)" fill="#12263f" font-size="16" font-family="Roboto-Bold, Roboto" font-weight="700"><tspan x="1.855" y="17">Superintendencia </tspan><tspan x="10.242" y="37">de la Economía </tspan><tspan x="33.191" y="57">Solidaria</tspan></text>
  </g>
</svg>
