<svg xmlns="http://www.w3.org/2000/svg" xmlns:xlink="http://www.w3.org/1999/xlink" width="186.11" height="183.449" viewBox="0 0 186.11 183.449">
  <defs>
    <clipPath id="clip-path">
      <rect id="Rectángulo_60329" data-name="Rectángulo 60329" width="186.11" height="183.449" fill="none"/>
    </clipPath>
  </defs>
  <g id="Grupo_184972" data-name="Grupo 184972" transform="translate(2584 8567)">
    <g id="Grupo_182766" data-name="Grupo 182766" transform="translate(-2584 -8567)">
      <g id="Grupo_182482" data-name="Grupo 182482" clip-path="url(#clip-path)">
        <circle id="Elipse_5435" data-name="Elipse 5435" cx="74" cy="74" r="74" transform="translate(21.11 18)" fill="#fff"/>
        <path id="Trazado_217728" data-name="Trazado 217728" d="M182.153,91.728A91.727,91.727,0,0,1,0,107.121a20.327,20.327,0,0,0,19.373-.528,72.568,72.568,0,1,0,1.18-34.585,20.349,20.349,0,0,0-19.286-1.86A91.731,91.731,0,0,1,182.153,91.728" transform="translate(3.957)" fill="#f4511e"/>
        <path id="Trazado_217727" data-name="Trazado 217727" d="M247.124,117.866a13.153,13.153,0,1,1-13.152-13.154,13.153,13.153,0,0,1,13.152,13.154" transform="translate(-220.818 -28.933)" fill="#f4511e"/>
      </g>
    </g>
    <text id="Superintendencia_Financiera_de_Colombia" data-name="Superintendencia Financiera de Colombia" transform="translate(-2556 -8505)" fill="#12263f" font-size="16" font-family="Roboto-Bold, Roboto" font-weight="700"><tspan x="1.855" y="17">Superintendencia </tspan><tspan x="16.715" y="37">Financiera de </tspan><tspan x="30.758" y="57">Colombia</tspan></text>
  </g>
</svg>
