<svg xmlns="http://www.w3.org/2000/svg" xmlns:xlink="http://www.w3.org/1999/xlink" width="78.007" height="36.189" viewBox="0 0 78.007 36.189">
  <defs>
    <clipPath id="clip-path">
      <rect id="Rectángulo_46170" data-name="Rectángulo 46170" width="36.189" height="41.003" fill="#727997"/>
    </clipPath>
  </defs>
  <g id="Grupo_182425" data-name="Grupo 182425" transform="translate(2137.004 -205) rotate(90)">
    <g id="Grupo_151069" data-name="Grupo 151069" transform="translate(205 2058.997)">
      <g id="Grupo_146339" data-name="Grupo 146339" transform="translate(0 -0.001)" clip-path="url(#clip-path)">
        <path id="Trazado_187982" data-name="Trazado 187982" d="M13.779.669a2.282,2.282,0,1,0,3.227,0,2.283,2.283,0,0,0-3.227,0" transform="translate(0.296 0.001)" fill="#727997"/>
        <path id="Trazado_187983" data-name="Trazado 187983" d="M19.718,6.608a2.282,2.282,0,1,0,3.227,0,2.281,2.281,0,0,0-3.227,0" transform="translate(0.43 0.134)" fill="#727997"/>
        <path id="Trazado_187984" data-name="Trazado 187984" d="M25.657,12.547a2.282,2.282,0,1,0,3.226,0,2.281,2.281,0,0,0-3.226,0" transform="translate(0.564 0.268)" fill="#727997"/>
        <path id="Trazado_187985" data-name="Trazado 187985" d="M31.6,18.487a2.282,2.282,0,1,0,3.226,0,2.281,2.281,0,0,0-3.226,0" transform="translate(0.698 0.402)" fill="#727997"/>
        <path id="Trazado_187986" data-name="Trazado 187986" d="M13.779,39.531a2.282,2.282,0,1,1,3.227,0,2.283,2.283,0,0,1-3.227,0" transform="translate(0.296 0.804)" fill="#727997"/>
        <path id="Trazado_187987" data-name="Trazado 187987" d="M19.718,33.592a2.282,2.282,0,1,1,3.227,0,2.281,2.281,0,0,1-3.227,0" transform="translate(0.43 0.67)" fill="#727997"/>
        <path id="Trazado_187988" data-name="Trazado 187988" d="M25.657,27.652a2.281,2.281,0,1,1,3.226,0,2.28,2.28,0,0,1-3.226,0" transform="translate(0.564 0.536)" fill="#727997"/>
        <path id="Trazado_187989" data-name="Trazado 187989" d="M31.6,21.713a2.282,2.282,0,1,1,3.226,0,2.281,2.281,0,0,1-3.226,0" transform="translate(0.698 0.402)" fill="#727997"/>
        <path id="Trazado_187990" data-name="Trazado 187990" d="M.668.669a2.282,2.282,0,1,0,3.227,0,2.283,2.283,0,0,0-3.227,0" transform="translate(0 0.001)" fill="#727997"/>
        <path id="Trazado_187991" data-name="Trazado 187991" d="M6.608,6.608a2.282,2.282,0,1,0,3.227,0,2.283,2.283,0,0,0-3.227,0" transform="translate(0.134 0.134)" fill="#727997"/>
        <path id="Trazado_187992" data-name="Trazado 187992" d="M12.547,12.547a2.282,2.282,0,1,0,3.227,0,2.281,2.281,0,0,0-3.227,0" transform="translate(0.268 0.268)" fill="#727997"/>
        <path id="Trazado_187993" data-name="Trazado 187993" d="M18.487,18.487a2.282,2.282,0,1,0,3.226,0,2.281,2.281,0,0,0-3.226,0" transform="translate(0.402 0.402)" fill="#727997"/>
        <path id="Trazado_187994" data-name="Trazado 187994" d="M.668,39.531a2.282,2.282,0,1,1,3.227,0,2.283,2.283,0,0,1-3.227,0" transform="translate(0 0.804)" fill="#727997"/>
        <path id="Trazado_187995" data-name="Trazado 187995" d="M6.608,33.592a2.282,2.282,0,1,1,3.227,0,2.283,2.283,0,0,1-3.227,0" transform="translate(0.134 0.67)" fill="#727997"/>
        <path id="Trazado_187996" data-name="Trazado 187996" d="M12.547,27.652a2.282,2.282,0,1,1,3.227,0,2.28,2.28,0,0,1-3.227,0" transform="translate(0.268 0.536)" fill="#727997"/>
        <path id="Trazado_187997" data-name="Trazado 187997" d="M18.487,21.713a2.282,2.282,0,1,1,3.226,0,2.281,2.281,0,0,1-3.226,0" transform="translate(0.402 0.402)" fill="#727997"/>
      </g>
    </g>
    <g id="Grupo_151070" data-name="Grupo 151070" transform="translate(205 2096.001)">
      <g id="Grupo_146339-2" data-name="Grupo 146339" transform="translate(0 -0.001)" clip-path="url(#clip-path)">
        <path id="Trazado_187982-2" data-name="Trazado 187982" d="M13.779.669a2.282,2.282,0,1,0,3.227,0,2.283,2.283,0,0,0-3.227,0" transform="translate(0.296 0.001)" fill="#727997"/>
        <path id="Trazado_187983-2" data-name="Trazado 187983" d="M19.718,6.608a2.282,2.282,0,1,0,3.227,0,2.281,2.281,0,0,0-3.227,0" transform="translate(0.43 0.134)" fill="#727997"/>
        <path id="Trazado_187984-2" data-name="Trazado 187984" d="M25.657,12.547a2.282,2.282,0,1,0,3.226,0,2.281,2.281,0,0,0-3.226,0" transform="translate(0.564 0.268)" fill="#727997"/>
        <path id="Trazado_187985-2" data-name="Trazado 187985" d="M31.6,18.487a2.282,2.282,0,1,0,3.226,0,2.281,2.281,0,0,0-3.226,0" transform="translate(0.698 0.402)" fill="#727997"/>
        <path id="Trazado_187986-2" data-name="Trazado 187986" d="M13.779,39.531a2.282,2.282,0,1,1,3.227,0,2.283,2.283,0,0,1-3.227,0" transform="translate(0.296 0.804)" fill="#727997"/>
        <path id="Trazado_187987-2" data-name="Trazado 187987" d="M19.718,33.592a2.282,2.282,0,1,1,3.227,0,2.281,2.281,0,0,1-3.227,0" transform="translate(0.43 0.67)" fill="#727997"/>
        <path id="Trazado_187988-2" data-name="Trazado 187988" d="M25.657,27.652a2.281,2.281,0,1,1,3.226,0,2.28,2.28,0,0,1-3.226,0" transform="translate(0.564 0.536)" fill="#727997"/>
        <path id="Trazado_187989-2" data-name="Trazado 187989" d="M31.6,21.713a2.282,2.282,0,1,1,3.226,0,2.281,2.281,0,0,1-3.226,0" transform="translate(0.698 0.402)" fill="#727997"/>
        <path id="Trazado_187990-2" data-name="Trazado 187990" d="M.668.669a2.282,2.282,0,1,0,3.227,0,2.283,2.283,0,0,0-3.227,0" transform="translate(0 0.001)" fill="#727997"/>
        <path id="Trazado_187991-2" data-name="Trazado 187991" d="M6.608,6.608a2.282,2.282,0,1,0,3.227,0,2.283,2.283,0,0,0-3.227,0" transform="translate(0.134 0.134)" fill="#727997"/>
        <path id="Trazado_187992-2" data-name="Trazado 187992" d="M12.547,12.547a2.282,2.282,0,1,0,3.227,0,2.281,2.281,0,0,0-3.227,0" transform="translate(0.268 0.268)" fill="#727997"/>
        <path id="Trazado_187993-2" data-name="Trazado 187993" d="M18.487,18.487a2.282,2.282,0,1,0,3.226,0,2.281,2.281,0,0,0-3.226,0" transform="translate(0.402 0.402)" fill="#727997"/>
        <path id="Trazado_187994-2" data-name="Trazado 187994" d="M.668,39.531a2.282,2.282,0,1,1,3.227,0,2.283,2.283,0,0,1-3.227,0" transform="translate(0 0.804)" fill="#727997"/>
        <path id="Trazado_187995-2" data-name="Trazado 187995" d="M6.608,33.592a2.282,2.282,0,1,1,3.227,0,2.283,2.283,0,0,1-3.227,0" transform="translate(0.134 0.67)" fill="#727997"/>
        <path id="Trazado_187996-2" data-name="Trazado 187996" d="M12.547,27.652a2.282,2.282,0,1,1,3.227,0,2.28,2.28,0,0,1-3.227,0" transform="translate(0.268 0.536)" fill="#727997"/>
        <path id="Trazado_187997-2" data-name="Trazado 187997" d="M18.487,21.713a2.282,2.282,0,1,1,3.226,0,2.281,2.281,0,0,1-3.226,0" transform="translate(0.402 0.402)" fill="#727997"/>
      </g>
    </g>
  </g>
</svg>
