<svg xmlns="http://www.w3.org/2000/svg" width="34.506" height="84" viewBox="0 0 34.506 84">
  <g id="Grupo_184969" data-name="Grupo 184969" transform="translate(-219.589 -2795.099)">
    <g id="Grupo_184401" data-name="Grupo 184401" transform="translate(480.095 4907.099) rotate(180)">
      <circle id="Elipse_5386" data-name="Elipse 5386" cx="5" cy="5" r="5" transform="translate(236 2102) rotate(90)" fill="#00a3be"/>
      <circle id="Elipse_5387" data-name="Elipse 5387" cx="5" cy="5" r="5" transform="translate(236 2088) rotate(90)" fill="#00a3be"/>
      <circle id="Elipse_5388" data-name="Elipse 5388" cx="5" cy="5" r="5" transform="translate(236 2074) rotate(90)" fill="#00a3be"/>
      <circle id="Elipse_5389" data-name="Elipse 5389" cx="5" cy="5" r="5" transform="translate(236 2058) rotate(90)" fill="#00a3be"/>
      <circle id="Elipse_5390" data-name="Elipse 5390" cx="5" cy="5" r="5" transform="translate(236 2028) rotate(90)" fill="#00a3be"/>
    </g>
    <g id="Grupo_184599" data-name="Grupo 184599" transform="translate(-6.411 767.099)">
      <circle id="Elipse_5386-2" data-name="Elipse 5386" cx="5" cy="5" r="5" transform="translate(236 2102) rotate(90)" fill="#00a3be"/>
      <circle id="Elipse_5387-2" data-name="Elipse 5387" cx="5" cy="5" r="5" transform="translate(236 2088) rotate(90)" fill="#00a3be"/>
      <circle id="Elipse_5388-2" data-name="Elipse 5388" cx="5" cy="5" r="5" transform="translate(236 2074) rotate(90)" fill="#00a3be"/>
      <circle id="Elipse_5389-2" data-name="Elipse 5389" cx="5" cy="5" r="5" transform="translate(236 2058) rotate(90)" fill="#00a3be"/>
      <circle id="Elipse_5390-2" data-name="Elipse 5390" cx="5" cy="5" r="5" transform="translate(236 2028) rotate(90)" fill="#00a3be"/>
    </g>
  </g>
</svg>
