<svg xmlns="http://www.w3.org/2000/svg" xmlns:xlink="http://www.w3.org/1999/xlink" width="39.401" height="164.648" viewBox="0 0 39.401 164.648">
  <defs>
    <clipPath id="clip-path">
      <rect id="Rectángulo_46170" data-name="Rectángulo 46170" width="39.401" height="44.643" fill="#00a3be"/>
    </clipPath>
  </defs>
  <g id="Grupo_180870" data-name="Grupo 180870" transform="translate(-208.299 -1161.076)">
    <g id="Grupo_180869" data-name="Grupo 180869" transform="translate(1605.799 5141.724) rotate(180)">
      <g id="Grupo_179222" data-name="Grupo 179222" transform="translate(1602.799 4291.648) rotate(180)">
        <g id="Grupo_165544" data-name="Grupo 165544" transform="translate(205.299 391.001)">
          <g id="Grupo_146339" data-name="Grupo 146339" transform="translate(0 -0.001)" clip-path="url(#clip-path)">
            <path id="Trazado_187982" data-name="Trazado 187982" d="M13.838.728a2.485,2.485,0,1,0,3.514,0,2.486,2.486,0,0,0-3.514,0" transform="translate(1.486 0.001)" fill="#00a3be"/>
            <path id="Trazado_187983" data-name="Trazado 187983" d="M19.777,6.667a2.485,2.485,0,1,0,3.514,0,2.484,2.484,0,0,0-3.514,0" transform="translate(2.159 0.674)" fill="#00a3be"/>
            <path id="Trazado_187984" data-name="Trazado 187984" d="M25.716,12.606a2.484,2.484,0,1,0,3.513,0,2.484,2.484,0,0,0-3.513,0" transform="translate(2.832 1.347)" fill="#00a3be"/>
            <path id="Trazado_187985" data-name="Trazado 187985" d="M31.656,18.546a2.484,2.484,0,1,0,3.513,0,2.484,2.484,0,0,0-3.513,0" transform="translate(3.505 2.02)" fill="#00a3be"/>
            <path id="Trazado_187986" data-name="Trazado 187986" d="M13.838,39.877a2.485,2.485,0,1,1,3.514,0,2.486,2.486,0,0,1-3.514,0" transform="translate(1.486 4.039)" fill="#00a3be"/>
            <path id="Trazado_187987" data-name="Trazado 187987" d="M19.777,33.938a2.485,2.485,0,1,1,3.514,0,2.484,2.484,0,0,1-3.514,0" transform="translate(2.159 3.366)" fill="#00a3be"/>
            <path id="Trazado_187988" data-name="Trazado 187988" d="M25.716,28a2.484,2.484,0,1,1,3.513,0,2.482,2.482,0,0,1-3.513,0" transform="translate(2.832 2.693)" fill="#00a3be"/>
            <path id="Trazado_187989" data-name="Trazado 187989" d="M31.656,22.059a2.484,2.484,0,1,1,3.513,0,2.484,2.484,0,0,1-3.513,0" transform="translate(3.505 2.02)" fill="#00a3be"/>
            <path id="Trazado_187990" data-name="Trazado 187990" d="M.727.728a2.485,2.485,0,1,0,3.514,0,2.486,2.486,0,0,0-3.514,0" transform="translate(0 0.001)" fill="#00a3be"/>
            <path id="Trazado_187991" data-name="Trazado 187991" d="M6.667,6.667a2.485,2.485,0,1,0,3.514,0,2.486,2.486,0,0,0-3.514,0" transform="translate(0.673 0.674)" fill="#00a3be"/>
            <path id="Trazado_187992" data-name="Trazado 187992" d="M12.606,12.606a2.485,2.485,0,1,0,3.514,0,2.484,2.484,0,0,0-3.514,0" transform="translate(1.346 1.347)" fill="#00a3be"/>
            <path id="Trazado_187993" data-name="Trazado 187993" d="M18.546,18.546a2.484,2.484,0,1,0,3.513,0,2.484,2.484,0,0,0-3.513,0" transform="translate(2.019 2.02)" fill="#00a3be"/>
            <path id="Trazado_187994" data-name="Trazado 187994" d="M.727,39.877a2.485,2.485,0,1,1,3.514,0,2.486,2.486,0,0,1-3.514,0" transform="translate(0 4.039)" fill="#00a3be"/>
            <path id="Trazado_187995" data-name="Trazado 187995" d="M6.667,33.938a2.485,2.485,0,1,1,3.514,0,2.486,2.486,0,0,1-3.514,0" transform="translate(0.673 3.366)" fill="#00a3be"/>
            <path id="Trazado_187996" data-name="Trazado 187996" d="M12.606,28a2.484,2.484,0,1,1,3.514,0,2.482,2.482,0,0,1-3.514,0" transform="translate(1.346 2.693)" fill="#00a3be"/>
            <path id="Trazado_187997" data-name="Trazado 187997" d="M18.546,22.059a2.484,2.484,0,1,1,3.513,0,2.484,2.484,0,0,1-3.513,0" transform="translate(2.019 2.02)" fill="#00a3be"/>
          </g>
        </g>
        <g id="Grupo_177019" data-name="Grupo 177019" transform="translate(205.299 431.006)">
          <g id="Grupo_146339-2" data-name="Grupo 146339" transform="translate(0 -0.001)" clip-path="url(#clip-path)">
            <path id="Trazado_187982-2" data-name="Trazado 187982" d="M13.838.728a2.485,2.485,0,1,0,3.514,0,2.486,2.486,0,0,0-3.514,0" transform="translate(1.486 0.001)" fill="#00a3be"/>
            <path id="Trazado_187983-2" data-name="Trazado 187983" d="M19.777,6.667a2.485,2.485,0,1,0,3.514,0,2.484,2.484,0,0,0-3.514,0" transform="translate(2.159 0.674)" fill="#00a3be"/>
            <path id="Trazado_187984-2" data-name="Trazado 187984" d="M25.716,12.606a2.484,2.484,0,1,0,3.513,0,2.484,2.484,0,0,0-3.513,0" transform="translate(2.832 1.347)" fill="#00a3be"/>
            <path id="Trazado_187985-2" data-name="Trazado 187985" d="M31.656,18.546a2.484,2.484,0,1,0,3.513,0,2.484,2.484,0,0,0-3.513,0" transform="translate(3.505 2.02)" fill="#00a3be"/>
            <path id="Trazado_187986-2" data-name="Trazado 187986" d="M13.838,39.877a2.485,2.485,0,1,1,3.514,0,2.486,2.486,0,0,1-3.514,0" transform="translate(1.486 4.039)" fill="#00a3be"/>
            <path id="Trazado_187987-2" data-name="Trazado 187987" d="M19.777,33.938a2.485,2.485,0,1,1,3.514,0,2.484,2.484,0,0,1-3.514,0" transform="translate(2.159 3.366)" fill="#00a3be"/>
            <path id="Trazado_187988-2" data-name="Trazado 187988" d="M25.716,28a2.484,2.484,0,1,1,3.513,0,2.482,2.482,0,0,1-3.513,0" transform="translate(2.832 2.693)" fill="#00a3be"/>
            <path id="Trazado_187989-2" data-name="Trazado 187989" d="M31.656,22.059a2.484,2.484,0,1,1,3.513,0,2.484,2.484,0,0,1-3.513,0" transform="translate(3.505 2.02)" fill="#00a3be"/>
            <path id="Trazado_187990-2" data-name="Trazado 187990" d="M.727.728a2.485,2.485,0,1,0,3.514,0,2.486,2.486,0,0,0-3.514,0" transform="translate(0 0.001)" fill="#00a3be"/>
            <path id="Trazado_187991-2" data-name="Trazado 187991" d="M6.667,6.667a2.485,2.485,0,1,0,3.514,0,2.486,2.486,0,0,0-3.514,0" transform="translate(0.673 0.674)" fill="#00a3be"/>
            <path id="Trazado_187992-2" data-name="Trazado 187992" d="M12.606,12.606a2.485,2.485,0,1,0,3.514,0,2.484,2.484,0,0,0-3.514,0" transform="translate(1.346 1.347)" fill="#00a3be"/>
            <path id="Trazado_187993-2" data-name="Trazado 187993" d="M18.546,18.546a2.484,2.484,0,1,0,3.513,0,2.484,2.484,0,0,0-3.513,0" transform="translate(2.019 2.02)" fill="#00a3be"/>
            <path id="Trazado_187994-2" data-name="Trazado 187994" d="M.727,39.877a2.485,2.485,0,1,1,3.514,0,2.486,2.486,0,0,1-3.514,0" transform="translate(0 4.039)" fill="#00a3be"/>
            <path id="Trazado_187995-2" data-name="Trazado 187995" d="M6.667,33.938a2.485,2.485,0,1,1,3.514,0,2.486,2.486,0,0,1-3.514,0" transform="translate(0.673 3.366)" fill="#00a3be"/>
            <path id="Trazado_187996-2" data-name="Trazado 187996" d="M12.606,28a2.484,2.484,0,1,1,3.514,0,2.482,2.482,0,0,1-3.514,0" transform="translate(1.346 2.693)" fill="#00a3be"/>
            <path id="Trazado_187997-2" data-name="Trazado 187997" d="M18.546,22.059a2.484,2.484,0,1,1,3.513,0,2.484,2.484,0,0,1-3.513,0" transform="translate(2.019 2.02)" fill="#00a3be"/>
          </g>
        </g>
      </g>
      <g id="Grupo_179223" data-name="Grupo 179223" transform="translate(1602.799 4371.648) rotate(180)">
        <g id="Grupo_165544-2" data-name="Grupo 165544" transform="translate(205.299 391.001)">
          <g id="Grupo_146339-3" data-name="Grupo 146339" transform="translate(0 -0.001)" clip-path="url(#clip-path)">
            <path id="Trazado_187982-3" data-name="Trazado 187982" d="M13.838.728a2.485,2.485,0,1,0,3.514,0,2.486,2.486,0,0,0-3.514,0" transform="translate(1.486 0.001)" fill="#00a3be"/>
            <path id="Trazado_187983-3" data-name="Trazado 187983" d="M19.777,6.667a2.485,2.485,0,1,0,3.514,0,2.484,2.484,0,0,0-3.514,0" transform="translate(2.159 0.674)" fill="#00a3be"/>
            <path id="Trazado_187984-3" data-name="Trazado 187984" d="M25.716,12.606a2.484,2.484,0,1,0,3.513,0,2.484,2.484,0,0,0-3.513,0" transform="translate(2.832 1.347)" fill="#00a3be"/>
            <path id="Trazado_187985-3" data-name="Trazado 187985" d="M31.656,18.546a2.484,2.484,0,1,0,3.513,0,2.484,2.484,0,0,0-3.513,0" transform="translate(3.505 2.02)" fill="#00a3be"/>
            <path id="Trazado_187986-3" data-name="Trazado 187986" d="M13.838,39.877a2.485,2.485,0,1,1,3.514,0,2.486,2.486,0,0,1-3.514,0" transform="translate(1.486 4.039)" fill="#00a3be"/>
            <path id="Trazado_187987-3" data-name="Trazado 187987" d="M19.777,33.938a2.485,2.485,0,1,1,3.514,0,2.484,2.484,0,0,1-3.514,0" transform="translate(2.159 3.366)" fill="#00a3be"/>
            <path id="Trazado_187988-3" data-name="Trazado 187988" d="M25.716,28a2.484,2.484,0,1,1,3.513,0,2.482,2.482,0,0,1-3.513,0" transform="translate(2.832 2.693)" fill="#00a3be"/>
            <path id="Trazado_187989-3" data-name="Trazado 187989" d="M31.656,22.059a2.484,2.484,0,1,1,3.513,0,2.484,2.484,0,0,1-3.513,0" transform="translate(3.505 2.02)" fill="#00a3be"/>
            <path id="Trazado_187990-3" data-name="Trazado 187990" d="M.727.728a2.485,2.485,0,1,0,3.514,0,2.486,2.486,0,0,0-3.514,0" transform="translate(0 0.001)" fill="#00a3be"/>
            <path id="Trazado_187991-3" data-name="Trazado 187991" d="M6.667,6.667a2.485,2.485,0,1,0,3.514,0,2.486,2.486,0,0,0-3.514,0" transform="translate(0.673 0.674)" fill="#00a3be"/>
            <path id="Trazado_187992-3" data-name="Trazado 187992" d="M12.606,12.606a2.485,2.485,0,1,0,3.514,0,2.484,2.484,0,0,0-3.514,0" transform="translate(1.346 1.347)" fill="#00a3be"/>
            <path id="Trazado_187993-3" data-name="Trazado 187993" d="M18.546,18.546a2.484,2.484,0,1,0,3.513,0,2.484,2.484,0,0,0-3.513,0" transform="translate(2.019 2.02)" fill="#00a3be"/>
            <path id="Trazado_187994-3" data-name="Trazado 187994" d="M.727,39.877a2.485,2.485,0,1,1,3.514,0,2.486,2.486,0,0,1-3.514,0" transform="translate(0 4.039)" fill="#00a3be"/>
            <path id="Trazado_187995-3" data-name="Trazado 187995" d="M6.667,33.938a2.485,2.485,0,1,1,3.514,0,2.486,2.486,0,0,1-3.514,0" transform="translate(0.673 3.366)" fill="#00a3be"/>
            <path id="Trazado_187996-3" data-name="Trazado 187996" d="M12.606,28a2.484,2.484,0,1,1,3.514,0,2.482,2.482,0,0,1-3.514,0" transform="translate(1.346 2.693)" fill="#00a3be"/>
            <path id="Trazado_187997-3" data-name="Trazado 187997" d="M18.546,22.059a2.484,2.484,0,1,1,3.513,0,2.484,2.484,0,0,1-3.513,0" transform="translate(2.019 2.02)" fill="#00a3be"/>
          </g>
        </g>
        <g id="Grupo_177019-2" data-name="Grupo 177019" transform="translate(205.299 431.006)">
          <g id="Grupo_146339-4" data-name="Grupo 146339" transform="translate(0 -0.001)" clip-path="url(#clip-path)">
            <path id="Trazado_187982-4" data-name="Trazado 187982" d="M13.838.728a2.485,2.485,0,1,0,3.514,0,2.486,2.486,0,0,0-3.514,0" transform="translate(1.486 0.001)" fill="#00a3be"/>
            <path id="Trazado_187983-4" data-name="Trazado 187983" d="M19.777,6.667a2.485,2.485,0,1,0,3.514,0,2.484,2.484,0,0,0-3.514,0" transform="translate(2.159 0.674)" fill="#00a3be"/>
            <path id="Trazado_187984-4" data-name="Trazado 187984" d="M25.716,12.606a2.484,2.484,0,1,0,3.513,0,2.484,2.484,0,0,0-3.513,0" transform="translate(2.832 1.347)" fill="#00a3be"/>
            <path id="Trazado_187985-4" data-name="Trazado 187985" d="M31.656,18.546a2.484,2.484,0,1,0,3.513,0,2.484,2.484,0,0,0-3.513,0" transform="translate(3.505 2.02)" fill="#00a3be"/>
            <path id="Trazado_187986-4" data-name="Trazado 187986" d="M13.838,39.877a2.485,2.485,0,1,1,3.514,0,2.486,2.486,0,0,1-3.514,0" transform="translate(1.486 4.039)" fill="#00a3be"/>
            <path id="Trazado_187987-4" data-name="Trazado 187987" d="M19.777,33.938a2.485,2.485,0,1,1,3.514,0,2.484,2.484,0,0,1-3.514,0" transform="translate(2.159 3.366)" fill="#00a3be"/>
            <path id="Trazado_187988-4" data-name="Trazado 187988" d="M25.716,28a2.484,2.484,0,1,1,3.513,0,2.482,2.482,0,0,1-3.513,0" transform="translate(2.832 2.693)" fill="#00a3be"/>
            <path id="Trazado_187989-4" data-name="Trazado 187989" d="M31.656,22.059a2.484,2.484,0,1,1,3.513,0,2.484,2.484,0,0,1-3.513,0" transform="translate(3.505 2.02)" fill="#00a3be"/>
            <path id="Trazado_187990-4" data-name="Trazado 187990" d="M.727.728a2.485,2.485,0,1,0,3.514,0,2.486,2.486,0,0,0-3.514,0" transform="translate(0 0.001)" fill="#00a3be"/>
            <path id="Trazado_187991-4" data-name="Trazado 187991" d="M6.667,6.667a2.485,2.485,0,1,0,3.514,0,2.486,2.486,0,0,0-3.514,0" transform="translate(0.673 0.674)" fill="#00a3be"/>
            <path id="Trazado_187992-4" data-name="Trazado 187992" d="M12.606,12.606a2.485,2.485,0,1,0,3.514,0,2.484,2.484,0,0,0-3.514,0" transform="translate(1.346 1.347)" fill="#00a3be"/>
            <path id="Trazado_187993-4" data-name="Trazado 187993" d="M18.546,18.546a2.484,2.484,0,1,0,3.513,0,2.484,2.484,0,0,0-3.513,0" transform="translate(2.019 2.02)" fill="#00a3be"/>
            <path id="Trazado_187994-4" data-name="Trazado 187994" d="M.727,39.877a2.485,2.485,0,1,1,3.514,0,2.486,2.486,0,0,1-3.514,0" transform="translate(0 4.039)" fill="#00a3be"/>
            <path id="Trazado_187995-4" data-name="Trazado 187995" d="M6.667,33.938a2.485,2.485,0,1,1,3.514,0,2.486,2.486,0,0,1-3.514,0" transform="translate(0.673 3.366)" fill="#00a3be"/>
            <path id="Trazado_187996-4" data-name="Trazado 187996" d="M12.606,28a2.484,2.484,0,1,1,3.514,0,2.482,2.482,0,0,1-3.514,0" transform="translate(1.346 2.693)" fill="#00a3be"/>
            <path id="Trazado_187997-4" data-name="Trazado 187997" d="M18.546,22.059a2.484,2.484,0,1,1,3.513,0,2.484,2.484,0,0,1-3.513,0" transform="translate(2.019 2.02)" fill="#00a3be"/>
          </g>
        </g>
      </g>
    </g>
  </g>
</svg>
