<svg xmlns="http://www.w3.org/2000/svg" xmlns:xlink="http://www.w3.org/1999/xlink" width="79" height="29.934" viewBox="0 0 79 29.934">
  <defs>
    <clipPath id="clip-path">
      <rect id="Rectángulo_55411" data-name="Rectángulo 55411" width="59.563" height="29.934" transform="translate(0 0)" fill="#00a3be"/>
    </clipPath>
  </defs>
  <g id="Grupo_180645" data-name="Grupo 180645" transform="translate(-288.911 -1291.033)">
    <circle id="Elipse_5390" data-name="Elipse 5390" cx="5" cy="5" r="5" transform="translate(298.911 1310.999) rotate(180)" fill="#00a3be"/>
    <g id="Grupo_178762" data-name="Grupo 178762" transform="translate(308.348 1291.032)" clip-path="url(#clip-path)">
      <path id="Trazado_207251" data-name="Trazado 207251" d="M58.6,12.634,46.924.954A3.1,3.1,0,0,0,42.705.726a2.98,2.98,0,0,0-.117,4.326l5.294,5.3a.948.948,0,0,1-.671,1.619H28.122a3.1,3.1,0,0,0-3.147,2.822,2.983,2.983,0,0,0,2.979,3.143H47.211a.948.948,0,0,1,.671,1.619l-5.174,5.176a3.094,3.094,0,0,0-.229,4.219,2.983,2.983,0,0,0,4.327.117l11.8-11.8a3.274,3.274,0,0,0,0-4.629" fill="#00a3be"/>
      <path id="Trazado_207252" data-name="Trazado 207252" d="M16.9,11.966H13.467a2.983,2.983,0,0,0,0,5.965H16.9a2.983,2.983,0,0,0,0-5.965" fill="#00a3be"/>
      <path id="Trazado_207253" data-name="Trazado 207253" d="M3.3,11.966H2.982a2.983,2.983,0,0,0,0,5.965H3.3a2.983,2.983,0,0,0,0-5.965" fill="#00a3be"/>
    </g>
  </g>
</svg>
